<svg viewBox="0 0 512 512" xml:space="preserve" xmlns="http://www.w3.org/2000/svg"><path d="M256 54.872c-83.352 0-151.162 67.811-151.162 151.162 0 134.032 136.018 239.518 141.809 243.945l9.354 7.148 9.348-7.148c5.791-4.428 141.814-109.913 141.814-243.945-.001-83.352-67.81-151.162-151.163-151.162zm-.011 362.891c-29.792-25.637-120.352-111.815-120.352-211.729 0-66.37 53.987-120.363 120.363-120.363 66.364 0 120.363 53.994 120.363 120.363.001 99.7-90.595 186.052-120.374 211.729z" fill="#9e9898" class="fill-000000"></path><path d="M253.665 271.729c-38.672 0-70.135-31.459-70.135-70.129 0-38.672 31.462-70.135 70.135-70.135 38.672 0 70.134 31.462 70.134 70.135 0 38.67-31.462 70.129-70.134 70.129zm0-117.263c-25.99 0-47.135 21.145-47.135 47.135 0 25.987 21.145 47.129 47.135 47.129 25.989 0 47.134-21.142 47.134-47.129 0-25.991-21.144-47.135-47.134-47.135z" fill="#9e9898" class="fill-000000"></path></svg>